HIERARCHY
ROOT hip
{
  OFFSET 0 0 0
  CHANNELS 6 Xposition Yposition Zposition Zrotation Yrotation Xrotation
  JOINT abdomen
  {
    OFFSET 0 20.6881 -0.73152
    CHANNELS 3 Zrotation Xrotation Yrotation
    JOINT chest
    {
      OFFSET 0 11.7043 -0.48768
      CHANNELS 3 Zrotation Xrotation Yrotation
      JOINT neck
      {
        OFFSET 0 22.1894 -2.19456
        CHANNELS 3 Zrotation Xrotation Yrotation
        JOINT head
        {
          OFFSET -0.24384 7.07133 1.2192
          CHANNELS 3 Zrotation Xrotation Yrotation
          JOINT leftEye
          {
            OFFSET 4.14528 8.04674 8.04672
            CHANNELS 3 Zrotation Xrotation Yrotation
            End Site
            {
              OFFSET 1 0 0
            }
          }
          JOINT rightEye
          {
            OFFSET -3.6576 8.04674 8.04672
            CHANNELS 3 Zrotation Xrotation Yrotation
            End Site
            {
              OFFSET 1 0 0
            }
          }
        }
      }
      JOINT rCollar
      {
        OFFSET -2.68224 19.2634 -4.8768
        CHANNELS 3 Zrotation Xrotation Yrotation
        JOINT rShldr
        {
          OFFSET -8.77824 -1.95073 1.46304
          CHANNELS 3 Zrotation Xrotation Yrotation
          JOINT rForeArm
          {
            OFFSET -28.1742 -1.7115 0.48768
            CHANNELS 3 Zrotation Xrotation Yrotation
            JOINT rHand
            {
              OFFSET -22.5879 0.773209 7.07136
              CHANNELS 3 Zrotation Xrotation Yrotation
              JOINT rThumb1
              {
                OFFSET -1.2192 -0.487915 3.41376
                CHANNELS 3 Zrotation Xrotation Yrotation
                JOINT rThumb2
                {
                  OFFSET -3.37035 -0.52449 3.41376
                  CHANNELS 3 Zrotation Xrotation Yrotation
                  End Site
                  {
                    OFFSET -1.78271 -1.18214 1.43049
                  }
                }
              }
              JOINT rIndex1
              {
                OFFSET -7.75947 0.938293 5.60832
                CHANNELS 3 Zrotation Xrotation Yrotation
                JOINT rIndex2
                {
                  OFFSET -2.54057 -0.884171 1.56538
                  CHANNELS 3 Zrotation Xrotation Yrotation
                  End Site
                  {
                    OFFSET -1.62519 -0.234802 1.16502
                  }
                }
              }
              JOINT rMid1
              {
                OFFSET -8.24714 1.18213 3.41376
                CHANNELS 3 Zrotation Xrotation Yrotation
                JOINT rMid2
                {
                  OFFSET -3.10165 -0.590103 1.0647
                  CHANNELS 3 Zrotation Xrotation Yrotation
                  End Site
                  {
                    OFFSET -2.48547 -0.328903 0.83742
                  }
                }
              }
              JOINT rRing1
              {
                OFFSET -8.82822 0.546677 1.51678
                CHANNELS 3 Zrotation Xrotation Yrotation
                JOINT rRing2
                {
                  OFFSET -2.60934 -0.819778 -0.0198488
                  CHANNELS 3 Zrotation Xrotation Yrotation
                  End Site
                  {
                    OFFSET -2.33842 -0.294052 0.168128
                  }
                }
              }
              JOINT rPinky1
              {
                OFFSET -8.27202 -0.0477905 -0.4584
                CHANNELS 3 Zrotation Xrotation Yrotation
                JOINT rPinky2
                {
                  OFFSET -1.82734 -0.647385 -0.700984
                  CHANNELS 3 Zrotation Xrotation Yrotation
                  End Site
                  {
                    OFFSET -1.69225 -0.51767 -0.607171
                  }
                }
              }
            }
          }
        }
      }
      JOINT lCollar
      {
        OFFSET 2.68224 19.2634 -4.8768
        CHANNELS 3 Zrotation Xrotation Yrotation
        JOINT lShldr
        {
          OFFSET 8.77824 -1.95073 1.46304
          CHANNELS 3 Zrotation Xrotation Yrotation
          JOINT lForeArm
          {
            OFFSET 28.1742 -1.7115 0.48768
            CHANNELS 3 Zrotation Xrotation Yrotation
            JOINT lHand
            {
              OFFSET 22.5879 0.773209 7.07136
              CHANNELS 3 Zrotation Xrotation Yrotation
              JOINT lThumb1
              {
                OFFSET 1.2192 -0.487915 3.41376
                CHANNELS 3 Zrotation Xrotation Yrotation
                JOINT lThumb2
                {
                  OFFSET 3.37035 -0.52449 3.41376
                  CHANNELS 3 Zrotation Xrotation Yrotation
                  End Site
                  {
                    OFFSET 1.78271 -1.18214 1.43049
                  }
                }
              }
              JOINT lIndex1
              {
                OFFSET 7.75947 0.938293 5.60832
                CHANNELS 3 Zrotation Xrotation Yrotation
                JOINT lIndex2
                {
                  OFFSET 2.54057 -0.884171 1.56538
                  CHANNELS 3 Zrotation Xrotation Yrotation
                  End Site
                  {
                    OFFSET 1.62519 -0.234802 1.16502
                  }
                }
              }
              JOINT lMid1
              {
                OFFSET 8.24714 1.18213 3.41376
                CHANNELS 3 Zrotation Xrotation Yrotation
                JOINT lMid2
                {
                  OFFSET 3.10165 -0.590103 1.0647
                  CHANNELS 3 Zrotation Xrotation Yrotation
                  End Site
                  {
                    OFFSET 2.48547 -0.328903 0.83742
                  }
                }
              }
              JOINT lRing1
              {
                OFFSET 8.82822 0.546677 1.51678
                CHANNELS 3 Zrotation Xrotation Yrotation
                JOINT lRing2
                {
                  OFFSET 2.60934 -0.819778 -0.0198488
                  CHANNELS 3 Zrotation Xrotation Yrotation
                  End Site
                  {
                    OFFSET 2.33842 -0.294052 0.168128
                  }
                }
              }
              JOINT lPinky1
              {
                OFFSET 8.27202 -0.0477905 -0.4584
                CHANNELS 3 Zrotation Xrotation Yrotation
                JOINT lPinky2
                {
                  OFFSET 1.82734 -0.647385 -0.700984
                  CHANNELS 3 Zrotation Xrotation Yrotation
                  End Site
                  {
                    OFFSET 1.69225 -0.51767 -0.607171
                  }
                }
              }
            }
          }
        }
      }
    }
  }
  JOINT rButtock
  {
    OFFSET -8.77824 4.35084 1.2192
    CHANNELS 3 Zrotation Xrotation Yrotation
    JOINT rThigh
    {
      OFFSET 0 -1.70687 -2.19456
      CHANNELS 3 Zrotation Xrotation Yrotation
      JOINT rShin
      {
        OFFSET 0 -36.8199 0.73152
        CHANNELS 3 Zrotation Xrotation Yrotation
        JOINT rFoot
        {
          OFFSET 0.73152 -45.1104 -5.12064
          CHANNELS 3 Zrotation Xrotation Yrotation
          End Site
          {
            OFFSET -1.1221 -3.69964 12.103
          }
        }
      }
    }
  }
  JOINT lButtock
  {
    OFFSET 8.77824 4.35084 1.2192
    CHANNELS 3 Zrotation Xrotation Yrotation
    JOINT lThigh
    {
      OFFSET 0 -1.70687 -2.19456
      CHANNELS 3 Zrotation Xrotation Yrotation
      JOINT lShin
      {
        OFFSET 0 -36.8199 0.73152
        CHANNELS 3 Zrotation Xrotation Yrotation
        JOINT lFoot
        {
          OFFSET -0.73152 -45.1104 -5.12064
          CHANNELS 3 Zrotation Xrotation Yrotation
          End Site
          {
            OFFSET 1.1221 -3.69964 12.103
          }
        }
      }
    }
  }
}
MOTION
Frames:	4
Frame Time:	0.03333
0.03330000035930425 70.25420069694519 0.09599999757483602 -11.468900191995864 -26.207000420779337 3.7264000932235706 5.63243012168639 19.11569994898617 12.562100143186731 -0.9466999707352041 -8.878930024767463 3.5824999602424494 -2.957239897627152 12.567899827565718 -0.3575169939963409 7.839480247250012 -28.365999311758273 1.4481999937976318 -0.0 0.0 0.0 -0.0 0.0 0.0 2.692879983673881e-13 2.6786199985961464e-13 -6.327319851949523e-13 51.71760158397334 49.913598360011235 11.011299715719812 -26.41690067171029 -24.554600075634834 58.56820277432068 -0.29169099250949015 15.189399855550189 2.186739917736354 -4.9758501793930785e-09 -4.200360180710611e-09 2.852720001595003e-09 -8.559119935944807e-09 -7.546549801028708e-09 4.986879945459059e-09 -4.9758501793930785e-09 -4.200360180710611e-09 2.852710062361623e-09 7.730910121524428 5.474879855648998 0.41731399283890674 -4.9758501793930785e-09 -4.200360180710611e-09 2.852720001595003e-09 2.90554006136521 0.9651829962377875 0.10290200252939893 -4.9758501793930785e-09 -4.200360180710611e-09 2.852720001595003e-09 10.278599710243157 0.7318009818271524 0.025912300303053633 -4.975860118626458e-09 -4.200349843907895e-09 2.852729940828382e-09 2.221669932038622 -0.7334870246959406 -0.20891999872313852 2.69159996765637e-13 2.6786199985961464e-13 -6.329799807153117e-13 -55.972300587798124 31.643200915158552 -23.087200526802 22.084600473630413 -15.884800197969405 -44.01870114399418 0.006614570053049566 -2.3197800499371546 0.32620399174641745 1.8350900017500302e-09 4.7413399313420695e-09 2.7320999501088436e-10 3.1737999784587585e-09 8.19636972313719e-09 4.717650166151191e-10 1.8350900017500302e-09 4.7413399313420695e-09 2.7321498947565763e-10 -7.730910121524428 5.474879855648998 -0.41731399283890674 1.8350900017500302e-09 4.74132999210869e-09 2.7320500054611114e-10 -2.90554006136521 0.9651829962377875 -0.10290200252939893 1.8350900017500302e-09 4.741349870575449e-09 2.7320999501088436e-10 -10.278599710243157 0.7318009818271524 -0.025912300303053633 1.8350999409834097e-09 4.741349870575449e-09 2.7320400662277316e-10 -2.221669932038622 -0.7334870246959406 0.20891999872313852 -2.0321699793705798e-16 0.0 -3.882510030490358e-19 -4.259049834326076 0.6477979793290465 -6.781480102833628 -0.33854400914251487 48.471499539411425 2.001750007038671 -19.006000280726592 -19.903599835787574 -33.57509943132915 2.0321699793705798e-16 0.0 3.882510030490358e-19 62.65919921921318 -51.86710076452658 56.35240061510933 2.5481000403991643 72.26590126797113 -2.692139978814859 0.1672189991171397 2.4226399240731964 -0.5719029983451276
0.07570000016130507 70.36160230636597 0.20699999295175076 -11.251999850939292 -26.240799611887144 3.67120021189882 5.472079904976116 19.03050016927943 12.549699934748572 -0.8938039975948634 -8.902430144380538 3.5746300882147137 -2.967480058740294 12.622000048434096 -0.3391970125797651 7.819519873174295 -28.364699868268676 1.4779800454657106 -0.0 0.0 0.0 -0.0 0.0 0.0 3.4831900211046985e-13 3.7053699842973603e-13 -2.0981699825143795e-13 52.34510130830617 49.70729932632017 10.351300243768772 -26.48939971465539 -24.76119963764938 58.90010215665911 -0.2834160048866081 14.981000538689345 2.1552800664192753 -3.706099995364504e-09 7.085779862555074e-10 1.345299986616387e-09 -6.385340021198428e-09 1.0449400314020265e-09 2.362429943630033e-09 -3.706099995364504e-09 7.085720227154798e-10 1.345299986616387e-09 7.730910121524428 5.474879855648998 0.41731399283890674 -3.706099995364504e-09 7.085830055683642e-10 1.345299986616387e-09 2.90554006136521 0.9651829962377875 0.10290200252939893 -3.706099995364504e-09 7.085709790959749e-10 1.345299986616387e-09 10.278599710243157 0.7318009818271524 0.025912300303053633 -3.7061099345978835e-09 7.085750044854936e-10 1.3453100252421004e-09 2.221669932038622 -0.7334870246959406 -0.20891999872313852 3.482460108653386e-13 3.7053199969419847e-13 -2.0996598968930557e-13 -56.16409912988125 31.611700082706456 -22.921899703603938 22.053499207244762 -15.837900704033512 -43.9343995341633 0.006138569984299479 -2.2365100121143557 0.31448199974850044 4.362540242042452e-10 -3.5939798768722224e-09 -1.0995299786389946e-09 7.610669783407013e-10 -6.21005011103893e-09 -1.904319942793441e-09 4.362540242042452e-10 -3.5939699376388426e-09 -1.0995100007799017e-09 -7.730910121524428 5.474879855648998 -0.41731399283890674 4.362529805847403e-10 -3.5939898161056018e-09 -1.0995299786389946e-09 -2.90554006136521 0.9651829962377875 -0.10290200252939893 4.362490048913885e-10 -3.5939699376388426e-09 -1.0995299786389946e-09 -10.278599710243157 0.7318009818271524 -0.025912300303053633 4.3625899382093497e-10 -3.5939699376388426e-09 -1.0995299786389946e-09 -2.221669932038622 -0.7334870246959406 0.20891999872313852 -2.0321699793705798e-16 0.0 -3.882510030490358e-19 -4.411520147168271 0.4673360038034058 -6.889380016246904 -0.34407400777099223 48.61819834240496 1.998130006778564 -18.79090054828997 -19.74389976770892 -33.36670011446831 2.0321699793705798e-16 0.0 3.882510030490358e-19 62.69360288206253 -51.64770142800744 56.82400127163662 2.5401300634114055 72.23310269957673 -2.6937600143086216 0.15454299511081585 2.6156700346410426 -0.5963679889001728
0.1277000003028661 70.5033004283905 0.30999999726191163 -11.01460040463622 -26.248200121852854 3.6237999797194007 5.213699825090058 18.93090064325501 12.51919972500988 -0.8419649962285823 -8.9191000748236 3.557130076344083 -2.9392899470449474 12.591399947178793 -0.34748200536256413 7.759269920731967 -28.215900782105365 1.43507002233534 -0.0 0.0 0.0 -0.0 0.0 0.0 8.370300154273062e-14 1.3606799577068185e-13 1.5671399895905881e-13 52.93670155836141 49.54630152229922 9.786489703185614 -26.563300653927637 -24.975399492662856 59.243599200208216 -0.27080499439910516 14.652000571653586 2.1057799779569004 -3.9388501045763237e-10 1.341110003392894e-09 -1.4943299452253837e-10 -6.837870037023394e-10 2.3167899778743697e-09 -2.5575600545001675e-10 -3.9388100991619713e-10 1.3410999647671807e-09 -1.4944099560540893e-10 7.730910121524428 5.474879855648998 0.41731399283890674 -3.9388299776287304e-10 1.3410999647671807e-09 -1.4943499479325602e-10 2.90554006136521 0.9651829962377875 0.10290200252939893 -3.9388600438097035e-10 1.3410999647671807e-09 -1.4943299452253837e-10 10.278599710243157 0.7318009818271524 0.025912300303053633 -3.9389099884574357e-10 1.341110003392894e-09 -1.4942700613442717e-10 2.221669932038622 -0.7334870246959406 -0.20891999872313852 8.36729969966519e-14 1.3606799577068185e-13 1.5655200110251088e-13 -56.34910163374022 31.579601608701978 -22.721599283551434 22.044300649980045 -15.8241003068155 -43.90959911728698 0.0070554603481242095 -2.4047998968479463 0.3381720039565872 7.030440198944285e-10 4.597639886632869e-10 -3.009480099572629e-10 1.2190799722595087e-09 8.088579929843721e-10 -5.189610190525218e-10 7.030419823515857e-10 4.597680140528056e-10 -3.0094199672106827e-10 -7.730910121524428 5.474879855648998 -0.41731399283890674 7.030429762749237e-10 4.5975797542709227e-10 -3.00954992268712e-10 -2.90554006136521 0.9651829962377875 -0.10290200252939893 7.030390005815718e-10 4.597700018994816e-10 -3.009530044220361e-10 -10.278599710243157 0.7318009818271524 -0.025912300303053633 7.030479955877804e-10 4.597729836694954e-10 -3.009589928101473e-10 -2.221669932038622 -0.7334870246959406 0.20891999872313852 -2.0321699793705798e-16 0.0 -3.882510030490358e-19 -4.6382201021365175 0.33579899346768377 -6.803939899258745 -0.34771599270249 48.715999821130374 1.9961599240898384 -18.49499967797209 -19.596299379744945 -33.02719873158365 2.0321699793705798e-16 0.0 3.882510030490358e-19 62.63480178349789 -51.49849936068309 57.296100531973316 2.5234501011279997 72.17219790274773 -2.6842799251840552 0.1538479966823406 3.085299968149368 -0.5464269797103618
0.14430000010179356 70.64610123634338 0.3759999992325902 -10.807399785974713 -26.173899616514163 3.6607000767103948 5.070679932738222 18.730400440169287 12.440499724072055 -0.8212970038826823 -8.89486997874298 3.528300061300871 -2.9034500234791865 12.535699754497339 -0.35957200048244203 7.6951796944287985 -28.031400297150395 1.3818699990552281 -0.0 0.0 0.0 -0.0 0.0 0.0 -2.4251700327311526e-13 -1.542590010345922e-13 4.1988301118290803e-13 53.510099354278566 49.42309857005053 9.25381008000549 -26.641499489735114 -25.206900216843977 59.61380228341208 -0.25483201005564854 14.22609985708921 2.041910025254465 2.8913599640661002e-09 6.357439797963295e-10 -1.3986899702074392e-09 4.974830016478999e-09 1.2632800412754734e-09 -2.447630046083075e-09 2.8913599640661002e-09 6.357380162563017e-10 -1.3987000088331525e-09 7.730910121524428 5.474879855648998 0.41731399283890674 2.8913599640661002e-09 6.357249958605745e-10 -1.3987000088331525e-09 2.90554006136521 0.9651829962377875 0.10290200252939893 2.8913599640661002e-09 6.357370223329638e-10 -1.3987000088331525e-09 10.278599710243157 0.7318009818271524 0.025912300303053633 2.8913500248327205e-09 6.357400041029777e-10 -1.3986899702074392e-09 2.221669932038622 -0.7334870246959406 -0.20891999872313852 -2.425339892676604e-13 -1.5425400229905464e-13 4.1968398385825164e-13 -56.537601194454226 31.546099530823067 -22.520699514399265 22.040200828930747 -15.817799457306165 -43.898199531562234 0.008446909620789315 -2.62320010475757 0.3689270117678323 1.2038600241853677e-09 6.0243900023405184e-09 7.623850200791665e-10 2.079789951861778e-09 1.0436500381801585e-08 1.3245099927639994e-09 1.2038499855596544e-09 6.024399941573898e-09 7.623850200791665e-10 -7.730910121524428 5.474879855648998 -0.41731399283890674 1.2038600241853677e-09 6.0243900023405184e-09 7.623759753767911e-10 -2.90554006136521 0.9651829962377875 -0.10290200252939893 1.2038499855596544e-09 6.024399941573898e-09 7.623749814534531e-10 -10.278599710243157 0.7318009818271524 -0.025912300303053633 1.2038600241853677e-09 6.024399941573898e-09 7.623690179134254e-10 -2.221669932038622 -0.7334870246959406 0.20891999872313852 -2.0321699793705798e-16 0.0 -3.882510030490358e-19 -4.787650127024411 0.18944100624156296 -6.660160148361746 -0.3497680109808292 48.75159876708448 1.9915600051272464 -18.142399699806646 -19.46279991732246 -32.58529915266217 2.0321699793705798e-16 0.0 3.882510030490358e-19 62.612398763020245 -51.44870045144453 57.74909916829607 2.49819995898352 72.06699932915119 -2.665059986303051 0.1606310015181847 3.5357500901380625 -0.39727200333869434
